<svg width="546" height="443" viewBox="0 0 546 443" fill="none" xmlns="http://www.w3.org/2000/svg">
<g filter="url(#filter0_d_9_319)">
<path d="M417.902 77.2526H295.603C293.335 77.2552 291.161 78.158 289.558 79.7625C287.956 81.3671 287.055 83.5422 287.055 85.8101V160.921H426.445V85.8101C426.444 83.5435 425.544 81.3699 423.942 79.7657C422.341 78.1616 420.169 77.2578 417.902 77.2526Z" fill="#F5EBDD"/>
<path d="M353.763 64.8419C354.543 64.8432 355.291 65.1536 355.842 65.705C356.394 66.2565 356.704 67.0041 356.705 67.784V115.122C356.704 115.902 356.394 116.649 355.842 117.201C355.291 117.752 354.543 118.062 353.763 118.064H305.923C305.144 118.061 304.398 117.75 303.847 117.199C303.297 116.648 302.987 115.901 302.986 115.122V67.779C302.988 67.0008 303.299 66.2553 303.849 65.705C304.399 65.1548 305.145 64.8445 305.923 64.8419H353.763ZM353.763 62.8506H305.923C305.275 62.8499 304.633 62.9771 304.033 63.2247C303.434 63.4723 302.89 63.8356 302.431 64.2938C301.973 64.752 301.609 65.296 301.36 65.8949C301.112 66.4938 300.984 67.1357 300.984 67.784V115.122C300.986 116.431 301.507 117.685 302.433 118.61C303.359 119.535 304.614 120.055 305.923 120.055H353.763C355.072 120.055 356.327 119.535 357.252 118.61C358.177 117.685 358.697 116.43 358.697 115.122V67.779C358.695 66.4714 358.175 65.2179 357.25 64.2938C356.325 63.3697 355.071 62.8506 353.763 62.8506Z" fill="#FFB494"/>
<path d="M429.477 119.871C430.257 119.872 431.004 120.183 431.556 120.734C432.107 121.286 432.418 122.033 432.419 122.813V170.156C432.418 170.936 432.107 171.683 431.556 172.235C431.004 172.786 430.257 173.097 429.477 173.098H381.88C381.1 173.097 380.353 172.786 379.801 172.235C379.25 171.683 378.939 170.936 378.938 170.156V122.813C378.939 122.033 379.25 121.286 379.801 120.734C380.353 120.183 381.1 119.872 381.88 119.871H429.477ZM429.477 117.88H381.88C380.572 117.88 379.317 118.399 378.392 119.325C377.467 120.25 376.947 121.505 376.947 122.813V170.156C376.947 171.464 377.467 172.719 378.392 173.644C379.317 174.569 380.572 175.089 381.88 175.089H429.477C430.785 175.089 432.04 174.569 432.965 173.644C433.89 172.719 434.41 171.464 434.41 170.156V122.813C434.41 121.505 433.89 120.25 432.965 119.325C432.04 118.399 430.785 117.88 429.477 117.88Z" fill="#FFB494"/>
<path d="M307.591 131.644C308.37 131.646 309.118 131.956 309.669 132.508C310.221 133.059 310.531 133.807 310.533 134.586V164.953C310.531 165.733 310.221 166.481 309.669 167.032C309.118 167.584 308.37 167.894 307.591 167.896H280.539C279.759 167.894 279.012 167.584 278.46 167.032C277.909 166.481 277.598 165.733 277.597 164.953V134.586C277.598 133.807 277.909 133.059 278.46 132.508C279.012 131.956 279.759 131.646 280.539 131.644H307.591ZM307.591 129.653H280.539C279.891 129.653 279.25 129.781 278.651 130.029C278.053 130.277 277.509 130.64 277.051 131.098C276.592 131.556 276.229 132.1 275.981 132.699C275.733 133.297 275.606 133.939 275.606 134.586V164.953C275.606 166.262 276.125 167.517 277.051 168.442C277.976 169.367 279.231 169.887 280.539 169.887H307.591C308.899 169.887 310.154 169.367 311.079 168.442C312.004 167.517 312.524 166.262 312.524 164.953V134.586C312.524 133.939 312.396 133.297 312.148 132.699C311.9 132.1 311.537 131.556 311.079 131.098C310.621 130.64 310.077 130.277 309.478 130.029C308.88 129.781 308.238 129.653 307.591 129.653Z" fill="#FFB494"/>
<path d="M351.468 69.5613H308.198V99.8486H351.468V69.5613Z" fill="#FFB494"/>
<path d="M377.753 89.6333H335.762C329.568 89.6333 324.546 94.6548 324.546 100.849V137.071C324.546 143.265 329.568 148.286 335.762 148.286H377.753C383.948 148.286 388.969 143.265 388.969 137.071V100.849C388.969 94.6548 383.948 89.6333 377.753 89.6333Z" fill="#3EC1F3"/>
<path d="M316.337 106.29C315.903 105.857 315.315 105.614 314.702 105.614C314.089 105.614 313.501 105.857 313.067 106.29L312.569 106.788L312.071 106.29C311.631 105.887 311.053 105.669 310.456 105.682C309.86 105.695 309.291 105.937 308.869 106.359C308.447 106.781 308.205 107.35 308.192 107.946C308.179 108.543 308.397 109.121 308.8 109.561L309.298 110.059L312.569 113.33L315.834 110.059L316.332 109.561C316.766 109.128 317.01 108.54 317.011 107.927C317.012 107.314 316.77 106.725 316.337 106.29Z" fill="#FFB494"/>
<path d="M360.474 106.698H344.862C342.138 106.698 339.929 108.907 339.929 111.632V126.283C339.929 129.007 342.138 131.216 344.862 131.216H360.474C363.199 131.216 365.407 129.007 365.407 126.283V111.632C365.407 108.907 363.199 106.698 360.474 106.698Z" fill="#3546AB"/>
<path d="M361.694 120.976L370.719 128.17C371.066 128.446 371.483 128.619 371.924 128.669C372.365 128.719 372.81 128.643 373.21 128.45C373.609 128.258 373.946 127.957 374.182 127.581C374.418 127.206 374.543 126.771 374.542 126.328V111.936C374.543 111.492 374.418 111.058 374.182 110.682C373.946 110.307 373.609 110.006 373.21 109.813C372.81 109.621 372.365 109.545 371.924 109.595C371.483 109.644 371.066 109.817 370.719 110.094L361.694 117.292C361.417 117.513 361.193 117.793 361.039 118.112C360.886 118.431 360.806 118.78 360.806 119.134C360.806 119.488 360.886 119.838 361.039 120.157C361.193 120.475 361.417 120.756 361.694 120.976Z" fill="#3546AB"/>
<path d="M424.742 62.8506H288.768C284.489 62.8493 280.384 64.5469 277.356 67.5703C274.328 70.5938 272.624 74.6958 272.619 78.975V173.606C272.619 177.887 274.32 181.994 277.347 185.021C280.375 188.049 284.481 189.75 288.763 189.75H424.738C429.019 189.75 433.126 188.049 436.153 185.021C439.181 181.994 440.882 177.887 440.882 173.606V78.975C440.877 74.6976 439.174 70.5971 436.148 67.5739C433.122 64.5507 429.02 62.8519 424.742 62.8506ZM426.445 160.921H287.055V85.81C287.055 84.6863 287.277 83.5735 287.707 82.5352C288.137 81.497 288.767 80.5536 289.562 79.759C290.357 78.9643 291.3 78.334 292.338 77.9039C293.376 77.4739 294.489 77.2525 295.613 77.2525H417.912C420.182 77.2525 422.36 78.154 423.965 79.7587C425.571 81.3634 426.474 83.54 426.475 85.81L426.445 160.921Z" fill="#3546AB"/>
<path d="M343.772 169.075H369.733C372.284 169.075 374.731 170.089 376.534 171.892C378.338 173.696 379.351 176.142 379.351 178.693V208.02C379.35 210.57 378.336 213.015 376.533 214.817C374.729 216.62 372.283 217.633 369.733 217.633H320.698C319.806 217.633 318.95 217.278 318.319 216.647C317.687 216.016 317.333 215.16 317.333 214.267C317.333 213.375 317.687 212.519 318.319 211.888C318.95 211.257 319.806 210.902 320.698 210.902H334.139V178.693C334.139 177.429 334.389 176.177 334.873 175.009C335.357 173.841 336.067 172.78 336.962 171.887C337.856 170.994 338.918 170.286 340.087 169.803C341.256 169.321 342.508 169.073 343.772 169.075Z" fill="#3546AB"/>
<path d="M356.755 181.337C360.074 181.337 362.764 178.647 362.764 175.328C362.764 172.01 360.074 169.319 356.755 169.319C353.437 169.319 350.747 172.01 350.747 175.328C350.747 178.647 353.437 181.337 356.755 181.337Z" fill="#3EC1F3"/>
<path d="M356.755 71.9606C357.817 71.9606 358.677 71.1003 358.677 70.039C358.677 68.9778 357.817 68.1174 356.755 68.1174C355.694 68.1174 354.834 68.9778 354.834 70.039C354.834 71.1003 355.694 71.9606 356.755 71.9606Z" fill="#30242A"/>
<path d="M379.351 190.711H334.05" stroke="#30242A" stroke-width="4" stroke-miterlimit="10"/>
<path d="M217.674 217.633H452.561C455.201 217.633 457.734 218.682 459.601 220.549C461.468 222.416 462.517 224.949 462.517 227.589V433.01H207.718V227.589C207.718 224.949 208.767 222.416 210.634 220.549C212.501 218.682 215.034 217.633 217.674 217.633Z" fill="#FFB494"/>
<path d="M369.908 241.259V276.216H231.344V241.259H369.908ZM371.899 239.268H229.353V278.208H371.899V239.268Z" fill="#A15842"/>
<path d="M300.626 264.747C303.945 264.747 306.635 262.056 306.635 258.738C306.635 255.419 303.945 252.729 300.626 252.729C297.308 252.729 294.617 255.419 294.617 258.738C294.617 262.056 297.308 264.747 300.626 264.747Z" fill="#A15842"/>
<path d="M369.908 301.834V409.388H231.344V301.834H369.908ZM371.899 299.843H229.353V411.379H371.899V299.843Z" fill="#A15842"/>
<path d="M279.952 361.617C283.27 361.617 285.96 358.927 285.96 355.609C285.96 352.29 283.27 349.6 279.952 349.6C276.633 349.6 273.943 352.29 273.943 355.609C273.943 358.927 276.633 361.617 279.952 361.617Z" fill="#A15842"/>
<path d="M321.3 361.617C324.619 361.617 327.309 358.927 327.309 355.609C327.309 352.29 324.619 349.6 321.3 349.6C317.982 349.6 315.292 352.29 315.292 355.609C315.292 358.927 317.982 361.617 321.3 361.617Z" fill="#A15842"/>
<path d="M300.984 300.804V410.419" stroke="#A15842" stroke-width="4" stroke-miterlimit="10"/>
<path d="M440.887 239.268H393.534V411.379H440.887V239.268Z" fill="#A15842"/>
<path d="M440.887 325.321H393.29" stroke="#FFB494" stroke-width="4" stroke-miterlimit="10"/>
<path d="M31.0217 217.633H198.125C200.766 217.633 203.298 218.682 205.165 220.549C207.032 222.416 208.081 224.949 208.081 227.589V433.01H21.0653V227.589C21.0653 224.949 22.1142 222.416 23.9814 220.549C25.8486 218.682 28.3811 217.633 31.0217 217.633Z" fill="#3EC1F3"/>
<path d="M179.477 278.208H49.67V411.379H179.477V278.208Z" fill="#30242A"/>
<path d="M179.477 411.379H49.67L4 318.113H133.802L179.477 411.379Z" fill="#3546AB"/>
<path d="M94.8621 217.633H49.67L54.4789 207.537H90.0532L94.8621 217.633Z" fill="#30242A"/>
<path d="M179.477 217.633H134.284L139.093 207.537H174.668L179.477 217.633Z" fill="#30242A"/>
<path d="M58.566 257.055C63.4792 257.055 67.4621 253.072 67.4621 248.159C67.4621 243.246 63.4792 239.263 58.566 239.263C53.6529 239.263 49.67 243.246 49.67 248.159C49.67 253.072 53.6529 257.055 58.566 257.055Z" fill="#F5EBDD"/>
<path d="M48.7092 248.159H55.9226" stroke="#30242A" stroke-width="4" stroke-miterlimit="10" stroke-linecap="round"/>
<path d="M95.9025 257.055C100.816 257.055 104.799 253.072 104.799 248.159C104.799 243.246 100.816 239.263 95.9025 239.263C90.9894 239.263 87.0065 243.246 87.0065 248.159C87.0065 253.072 90.9894 257.055 95.9025 257.055Z" fill="#F5EBDD"/>
<path d="M95.9025 238.307V245.516" stroke="#30242A" stroke-width="4" stroke-miterlimit="10" stroke-linecap="round"/>
<path d="M133.244 257.055C138.157 257.055 142.14 253.072 142.14 248.159C142.14 243.246 138.157 239.263 133.244 239.263C128.331 239.263 124.348 243.246 124.348 248.159C124.348 253.072 128.331 257.055 133.244 257.055Z" fill="#F5EBDD"/>
<path d="M133.244 238.307V245.516" stroke="#30242A" stroke-width="4" stroke-miterlimit="10" stroke-linecap="round"/>
<path d="M170.581 257.055C175.494 257.055 179.477 253.072 179.477 248.159C179.477 243.246 175.494 239.263 170.581 239.263C165.667 239.263 161.684 243.246 161.684 248.159C161.684 253.072 165.667 257.055 170.581 257.055Z" fill="#F5EBDD"/>
<path d="M170.581 238.307V245.516" stroke="#30242A" stroke-width="4" stroke-miterlimit="10" stroke-linecap="round"/>
<path d="M114.69 335.9H46.9071C45.1805 335.9 43.7808 337.299 43.7808 339.024C43.7808 340.749 45.1805 342.148 46.9071 342.148H114.69C116.417 342.148 117.817 340.749 117.817 339.024C117.817 337.299 116.417 335.9 114.69 335.9Z" fill="#30242A"/>
<path d="M209.162 25.8128C200.295 31.5129 206.279 43.5999 214.448 44.0779C217.583 51.3937 217.926 59.6047 215.414 67.1568H227.86L227.904 61.9147C239.285 64.7473 243.476 60.2769 245.682 56.2396C248.171 51.6596 247.434 47.3734 246.583 41.8028C246.583 41.8028 250.65 40.1849 250.341 37.7306C250.092 35.7394 245.756 35.0076 245.756 35.0076C245.692 34.1314 245.647 33.2254 245.622 32.2845C245.578 29.7872 245.395 27.2942 245.074 24.8172C235.516 29.9099 223.613 32.5533 223.613 32.5533C223.613 32.5533 215.892 21.4818 209.162 25.8128Z" fill="#A15842"/>
<path d="M357.313 206.984C362.525 208.976 366.368 205.615 365.407 203.689C364.78 202.434 346.744 188.904 328.131 175.154L306.809 201.742C311.703 203.619 314.928 204.68 314.928 204.68C314.928 204.68 320.215 212.849 327.912 217.658C327.912 217.658 336.081 237.366 340.407 236.888C343.314 236.565 339.446 225.349 338.485 220.54C338.485 220.54 348.103 236.888 354.351 236.888C355.794 236.888 357.124 235.893 357.233 233.523C357.233 233.523 360.404 234.394 361.564 232.08C362.062 231.119 362.062 229.675 362.062 228.714C362.062 228.714 364.551 229.406 365.91 227.753C368.2 224.986 363.182 215.836 357.313 206.984Z" fill="#A15842"/>
<path d="M156.761 122.445C156.509 122.226 156.225 121.987 155.91 121.728C156.189 121.967 156.467 122.206 156.761 122.445Z" fill="#FF7235"/>
<path d="M287.055 145.041C287.055 145.041 264.873 93.9892 255.807 82.0615C246.662 70.0391 227.815 70.6962 227.815 70.6962L227.845 67.1567H215.399C215.399 67.1567 228.84 94.0788 203.377 105.618C193.764 136.866 163.955 128.692 156.746 122.445C153.859 127.731 139.437 151.288 147.128 169.075C153.859 183.014 177.898 180.132 177.898 180.132L182.707 170.036H243.775H224.305L239.932 135.926L245.239 148.884C245.239 148.884 251.984 166.173 266.391 179.654C276.681 189.282 295.912 197.531 306.829 201.717L328.151 175.154C307.924 160.224 287.055 145.041 287.055 145.041Z" fill="#FF7235"/>
<path d="M179.641 148.217L169.739 152.732" stroke="#30242A" stroke-width="4" stroke-linecap="round" stroke-linejoin="round"/>
<path d="M183.2 171.963L176.744 128.478" stroke="#30242A" stroke-width="4" stroke-linecap="round" stroke-linejoin="round"/>
<path d="M224.305 170.016L243.775 170.036L245.219 148.884L239.932 135.906L224.305 170.016Z" fill="#FFBE21"/>
<path d="M234.7 4.33688C229.856 1.62874 222.254 -1.06448 213.667 1.60882C197.921 6.51234 194.899 20.1476 192.818 29.1781C191.374 35.4257 189.931 42.6192 189.931 42.6192C189.931 42.6192 163.009 44.5408 165.896 71.9458C151.584 75.2165 136.584 94.4771 148.089 112.882C150.222 116.211 152.861 119.189 155.91 121.708C156.225 121.967 156.509 122.206 156.761 122.425C163.969 128.672 193.779 136.862 203.392 105.598C228.875 94.059 215.414 67.1369 215.414 67.1369C217.926 59.5847 217.583 51.3738 214.448 44.0579C206.279 43.5601 200.295 31.493 209.162 25.7929C215.892 21.4619 223.598 32.5682 223.598 32.5682C223.598 32.5682 235.501 29.9248 245.059 24.8321C245.059 24.8321 245.059 24.7923 245.059 24.7774C245.059 24.7624 252.716 21.0835 254.822 14.2535C258.68 1.7731 242.814 -4.95742 234.7 4.33688Z" fill="#FFBE21"/>
<path d="M244.477 149.626C241.749 143.219 237.079 131.844 234.162 122.445" stroke="#30242A" stroke-width="4" stroke-linecap="round" stroke-linejoin="round"/>
<path d="M337.793 221.083L336.081 217.15" stroke="#30242A" stroke-width="4" stroke-linecap="round" stroke-linejoin="round"/>
<path d="M357.248 233.105C354.122 229.028 347.63 219.893 342.314 212.824" stroke="#30242A" stroke-width="4" stroke-linecap="round" stroke-linejoin="round"/>
<path d="M362.724 228.127C358.901 222.506 353.042 213.69 349.064 208.02" stroke="#30242A" stroke-width="4" stroke-linecap="round" stroke-linejoin="round"/>
<path d="M358.448 206.765C356.651 204.008 354.635 201.006 352.474 197.964" stroke="#30242A" stroke-width="4" stroke-linecap="round" stroke-linejoin="round"/>
<path d="M236.014 3.97351C237.119 4.75509 238.354 5.6661 239.449 6.58209" stroke="#CA7358" stroke-width="4" stroke-linecap="round" stroke-linejoin="round"/>
<path d="M188.716 43.1768L187.526 48.8868" stroke="#CA7358" stroke-width="4" stroke-linecap="round" stroke-linejoin="round"/>
<path d="M164.915 72.8467C165.691 76.7874 167.163 80.5585 169.261 83.9829" stroke="#CA7358" stroke-width="4" stroke-linecap="round" stroke-linejoin="round"/>
<path d="M227.626 62.8507C225.715 62.1826 223.872 61.3359 222.12 60.3218" stroke="#30242A" stroke-width="4" stroke-linecap="round" stroke-linejoin="round"/>
<path d="M263.006 268.515C262.265 269.983 261.131 271.217 259.73 272.079C258.33 272.941 256.718 273.397 255.073 273.397C253.429 273.397 251.816 272.941 250.416 272.079C249.015 271.217 247.881 269.983 247.14 268.515C246.399 269.983 245.265 271.217 243.865 272.079C242.464 272.941 240.852 273.397 239.208 273.397C237.563 273.397 235.951 272.941 234.55 272.079C233.15 271.217 232.016 269.983 231.275 268.515C230.535 269.983 229.401 271.217 228.001 272.079C226.601 272.942 224.989 273.398 223.344 273.398C221.7 273.398 220.088 272.942 218.688 272.079C217.288 271.217 216.154 269.983 215.414 268.515C215.077 269.173 214.661 269.786 214.175 270.342C227.432 306.09 219.257 323.4 215.414 358.013C214.636 365.357 214.413 372.749 214.747 380.126H260.741C262.413 365.55 265.853 345.861 267.82 321.448C263.357 321.149 259.182 319.134 256.172 315.825C253.162 312.517 251.55 308.171 251.673 303.699C251.797 299.228 253.647 294.978 256.835 291.84C260.023 288.703 264.303 286.921 268.776 286.87C268.94 286.87 269.104 286.87 269.273 286.87C269.273 282.21 269.129 277.635 268.895 273.15C267.635 272.852 266.456 272.283 265.439 271.482C264.422 270.682 263.591 269.669 263.006 268.515Z" fill="#F5EBDD"/>
<path d="M199.549 268.515C198.808 269.983 197.674 271.217 196.273 272.079C194.873 272.941 193.26 273.397 191.616 273.397C189.971 273.397 188.359 272.941 186.959 272.079C185.558 271.217 184.424 269.983 183.683 268.515C182.942 269.983 181.808 271.217 180.408 272.079C179.007 272.941 177.395 273.397 175.75 273.397C174.106 273.397 172.494 272.941 171.093 272.079C169.693 271.217 168.559 269.983 167.818 268.515C167.217 269.707 166.355 270.748 165.296 271.561C164.237 272.374 163.008 272.938 161.701 273.211C160.394 273.484 159.043 273.458 157.747 273.136C156.451 272.815 155.245 272.205 154.217 271.353C149.737 284.555 144.574 288.811 121.665 323.878C115.653 333.149 110.476 342.934 106.192 353.12L147.512 374.123C156.129 359.765 169.236 342.312 180.169 324.838C176.335 322.598 173.509 318.97 172.276 314.705C171.043 310.44 171.496 305.863 173.542 301.923C175.588 297.983 179.071 294.98 183.27 293.535C187.468 292.091 192.061 292.315 196.099 294.163C199.803 285.356 202.466 277.645 204.134 272.756C202.145 271.941 200.517 270.435 199.549 268.515Z" fill="#F5EBDD"/>
<path d="M208.564 273.329C208.848 273.294 209.132 273.249 209.41 273.19H209.47C209.739 273.127 210.003 273.052 210.262 272.966L210.391 272.931C210.665 272.831 210.939 272.727 211.203 272.602H211.237C211.501 272.478 211.735 272.343 212.009 272.194L212.054 272.164C212.313 272.011 212.564 271.845 212.806 271.666C213.299 271.293 213.751 270.87 214.155 270.402C214.641 269.846 215.058 269.232 215.394 268.575C216.135 270.043 217.268 271.277 218.668 272.139C220.068 273.001 221.68 273.458 223.325 273.458C224.969 273.458 226.581 273.001 227.981 272.139C229.381 271.277 230.515 270.043 231.255 268.575C231.996 270.043 233.13 271.276 234.53 272.138C235.931 273 237.543 273.457 239.188 273.457C240.832 273.457 242.444 273 243.845 272.138C245.245 271.276 246.379 270.043 247.12 268.575C247.861 270.043 248.995 271.276 250.396 272.138C251.796 273 253.409 273.457 255.053 273.457C256.698 273.457 258.31 273 259.71 272.138C261.111 271.276 262.245 270.043 262.986 268.575C263.57 269.729 264.398 270.742 265.414 271.543C266.429 272.344 267.607 272.915 268.865 273.214C268.133 259.712 266.451 246.277 263.832 233.011C260.239 234 256.483 234.255 252.789 233.758C249.095 233.261 245.54 232.023 242.336 230.118C228.542 222.238 225.087 183.677 224.29 170.021H182.722C158.683 191.657 159.165 256.079 154.596 270.203C154.471 270.591 154.342 270.964 154.217 271.338C155.245 272.19 156.451 272.8 157.747 273.122C159.043 273.443 160.394 273.469 161.701 273.196C163.008 272.923 164.237 272.36 165.296 271.547C166.355 270.734 167.217 269.692 167.818 268.5C168.559 269.968 169.693 271.202 171.093 272.064C172.494 272.926 174.106 273.382 175.75 273.382C177.395 273.382 179.007 272.926 180.408 272.064C181.808 271.202 182.942 269.968 183.683 268.5C184.424 269.968 185.558 271.202 186.959 272.064C188.359 272.926 189.971 273.382 191.616 273.382C193.26 273.382 194.873 272.926 196.273 272.064C197.674 271.202 198.808 269.968 199.549 268.5C200.516 270.409 202.135 271.907 204.114 272.722C204.631 272.938 205.168 273.105 205.717 273.219H205.796C206.025 273.264 206.254 273.299 206.488 273.324H206.677C206.941 273.324 207.21 273.364 207.479 273.364C207.748 273.364 208.071 273.364 208.365 273.319L208.564 273.329Z" fill="#30242A"/>
<path d="M222.145 426.757H261.567C261.567 426.757 262.981 417.438 267.974 411.355C264.076 408.532 260.91 405.027 260.123 399.352C259.451 394.508 259.835 388.077 260.741 380.121H214.747C215.477 395.893 217.958 411.534 222.145 426.757Z" fill="#FF7235"/>
<path d="M92.821 398.381L91.5815 397.764C91.4574 397.703 91.3293 397.649 91.1982 397.605L128.097 416.462C128.097 416.462 133.573 408.955 140.627 405.888C139.691 403.953 138.975 401.919 138.491 399.825C137.137 393.851 141.07 384.831 147.507 374.108L106.188 353.105C95.6188 378.07 92.821 398.381 92.821 398.381Z" fill="#FF7235"/>
<path d="M222.145 426.757H220.94C220.519 426.74 220.099 426.809 219.706 426.958C219.312 427.108 218.953 427.335 218.649 427.627C218.346 427.918 218.104 428.268 217.939 428.656C217.774 429.043 217.689 429.46 217.689 429.881C217.689 430.302 217.774 430.719 217.939 431.106C218.104 431.493 218.346 431.844 218.649 432.135C218.953 432.427 219.312 432.654 219.706 432.804C220.099 432.953 220.519 433.022 220.94 433.005H287.055C287.055 420.062 275.974 417.144 267.984 411.355C263.006 417.438 261.577 426.757 261.577 426.757H222.145Z" fill="#30242A"/>
<path d="M128.097 416.477L91.1981 397.62C90.4735 397.367 89.6799 397.4 88.9787 397.712C88.2775 398.024 87.7216 398.591 87.4241 399.299C87.1265 400.006 87.1097 400.8 87.3771 401.519C87.6445 402.239 88.176 402.829 88.8634 403.17L147.606 433.01C153.246 421.326 145.182 415.516 140.607 405.903C133.573 408.97 128.097 416.477 128.097 416.477Z" fill="#30242A"/>
<path d="M251.471 304.169C251.471 308.593 253.165 312.849 256.206 316.063C259.246 319.277 263.402 321.204 267.82 321.448C268.606 311.636 269.159 301.038 269.258 289.747C269.258 288.786 269.258 287.83 269.258 286.875C269.099 286.875 268.935 286.875 268.761 286.875C264.176 286.88 259.781 288.704 256.539 291.946C253.298 295.188 251.475 299.584 251.471 304.169Z" fill="#FFBE21"/>
<path d="M171.661 309.939C171.66 312.946 172.444 315.902 173.935 318.515C175.426 321.127 177.573 323.305 180.164 324.833C181.363 322.912 182.543 320.99 183.683 319.074C188.378 311.061 192.52 302.736 196.079 294.158C193.444 292.976 190.555 292.472 187.676 292.692C184.796 292.912 182.018 293.849 179.593 295.418C177.168 296.986 175.174 299.137 173.793 301.673C172.412 304.209 171.688 307.051 171.686 309.939H171.661Z" fill="#FFBE21"/>
<path d="M242.336 230.118C245.548 232.013 249.109 233.239 252.807 233.723C256.504 234.208 260.261 233.94 263.852 232.936C256.385 194.868 243.775 170.021 243.775 170.021H224.29C225.087 183.691 228.542 222.253 242.336 230.118Z" fill="#FFBE21"/>
<path d="M242.346 46.4226C241.51 46.8458 238.508 46.9702 237.507 44.5807" stroke="#30242A" stroke-width="4" stroke-linecap="round" stroke-linejoin="round"/>
<path d="M240.41 35.9087C241.207 35.9087 241.853 35.2624 241.853 34.465C241.853 33.6677 241.207 33.0214 240.41 33.0214C239.612 33.0214 238.966 33.6677 238.966 34.465C238.966 35.2624 239.612 35.9087 240.41 35.9087Z" fill="#30242A"/>
<path d="M213.01 33.9821L217.814 37.3473" stroke="#30242A" stroke-width="4" stroke-linecap="round" stroke-linejoin="round"/>
<path d="M182.239 170.036H243.775" stroke="#30242A" stroke-width="4" stroke-miterlimit="10" stroke-linecap="round"/>
<path d="M199.902 171.48C199.902 171.48 211.163 187.579 205.876 189.317C200.987 190.92 200.027 178.897 199.902 171.48Z" stroke="#A15842" stroke-width="4" stroke-linecap="round" stroke-linejoin="round"/>
<path d="M199.554 171.48C199.554 171.48 193.779 185.917 189.453 183.497C186.635 181.934 193.779 174.86 199.554 171.48Z" stroke="#A15842" stroke-width="4" stroke-linecap="round" stroke-linejoin="round"/>
<path d="M111.33 167.632H33.9289C32.2023 167.632 30.8026 169.03 30.8026 170.756C30.8026 172.481 32.2023 173.88 33.9289 173.88H111.33C113.057 173.88 114.456 172.481 114.456 170.756C114.456 169.03 113.057 167.632 111.33 167.632Z" fill="#30242A"/>
<path d="M72.6295 169.558C50.0334 169.558 39.9376 153.21 39.9376 153.21V193.573C39.9442 197.268 41.4149 200.81 44.0275 203.422C46.6402 206.035 50.1818 207.505 53.8766 207.512H91.3276C95.0267 207.512 98.5747 206.044 101.193 203.431C103.811 200.818 105.285 197.272 105.291 193.573V153.21C105.291 153.21 95.2205 169.558 72.6295 169.558Z" fill="#FFB494"/>
<path d="M72.6295 169.558C95.2205 169.558 105.316 153.21 105.316 153.21H39.9376C39.9376 153.21 50.0334 169.558 72.6295 169.558Z" fill="#A15842"/>
<path d="M73.3463 153.21C76.6648 153.21 79.355 150.52 79.355 147.201C79.355 143.883 76.6648 141.193 73.3463 141.193C70.0278 141.193 67.3376 143.883 67.3376 147.201C67.3376 150.52 70.0278 153.21 73.3463 153.21Z" fill="#30242A"/>
<path d="M73.8292 115.714C78.7424 115.714 82.7252 111.731 82.7252 106.818C82.7252 101.905 78.7424 97.9221 73.8292 97.9221C68.9161 97.9221 64.9332 101.905 64.9332 106.818C64.9332 111.731 68.9161 115.714 73.8292 115.714Z" fill="#F5EBDD"/>
<path d="M73.9835 89.0361C81.2199 89.0361 87.0862 83.1698 87.0862 75.9334C87.0862 68.6971 81.2199 62.8308 73.9835 62.8308C66.7472 62.8308 60.8809 68.6971 60.8809 75.9334C60.8809 83.1698 66.7472 89.0361 73.9835 89.0361Z" fill="#F5EBDD"/>
<path d="M511.074 315.245C511.074 315.245 506.499 325.54 494.492 325.54C482.485 325.54 477.915 315.245 477.915 315.245C477.915 315.245 444.182 392.437 477.342 433.03H511.652C544.812 392.407 511.074 315.245 511.074 315.245Z" fill="#3EC1F3"/>
<path d="M494.497 325.52C506.504 325.52 511.079 315.225 511.079 315.225H477.915C477.915 315.225 482.49 325.52 494.497 325.52Z" fill="#30242A"/>
<path d="M525.511 383.945C506.848 384.278 484.78 391.014 467.764 414.809" stroke="#F5EBDD" stroke-width="4" stroke-linecap="round" stroke-linejoin="round"/>
<path d="M464.777 365.027C477.302 361.971 501.028 359.053 524.018 364.529" stroke="#F5EBDD" stroke-width="4" stroke-linecap="round" stroke-linejoin="round"/>
<path d="M523.903 403.763C515.555 403.857 500.122 413.316 501.825 432.382" stroke="#F5EBDD" stroke-width="4" stroke-linecap="round" stroke-linejoin="round"/>
<path d="M504.832 239.766L495.652 320.039" stroke="#30242A" stroke-width="4" stroke-miterlimit="10"/>
<path d="M509.272 272.01L497.733 319.382" stroke="#30242A" stroke-width="4" stroke-miterlimit="10"/>
<path d="M485.196 293.828C486.243 291.379 478.805 285.849 468.581 281.478C458.358 277.107 449.222 275.549 448.174 277.999C447.127 280.449 454.565 285.978 464.789 290.349C475.012 294.72 484.148 296.278 485.196 293.828Z" fill="#30242A"/>
<path d="M523.469 298.07C534.256 294.003 542.268 288.764 541.365 286.369C540.462 283.974 530.985 285.33 520.198 289.397C509.412 293.464 501.399 298.703 502.302 301.098C503.205 303.493 512.682 302.138 523.469 298.07Z" fill="#30242A"/>
<path d="M500.317 281.175C501.48 279.57 498.174 275.188 492.932 271.388C487.69 267.588 482.497 265.808 481.333 267.413C480.17 269.018 483.476 273.4 488.718 277.2C493.961 281 499.153 282.78 500.317 281.175Z" fill="#30242A"/>
<path d="M471.219 252.888L493.77 320.034" stroke="#30242A" stroke-width="4" stroke-miterlimit="10"/>
<path d="M500.247 257.364C501.137 255.428 502.48 253.736 504.162 252.429C505.844 251.122 507.815 250.238 509.91 249.854C512.005 249.469 514.162 249.594 516.199 250.218C518.236 250.842 520.092 251.947 521.612 253.44C523.132 254.932 524.27 256.769 524.931 258.794C525.591 260.819 525.755 262.973 525.408 265.075C525.061 267.176 524.214 269.164 522.937 270.869C521.661 272.574 519.993 273.947 518.074 274.872C516.925 270.634 514.668 266.778 511.535 263.7C508.401 260.623 504.505 258.436 500.247 257.364Z" fill="#FF7235"/>
<path d="M507.191 264.871C508.984 259.124 512.804 254.223 517.939 251.081" stroke="#F5EBDD" stroke-width="4" stroke-miterlimit="10" stroke-linecap="round"/>
<path d="M509.407 266.638C513.087 261.843 518.403 258.568 524.341 257.438" stroke="#F5EBDD" stroke-width="4" stroke-miterlimit="10" stroke-linecap="round"/>
<path d="M518.074 274.872C515.612 276.059 512.843 276.457 510.146 276.012C507.449 275.567 504.956 274.3 503.006 272.385C501.056 270.469 499.744 267.999 499.25 265.311C498.757 262.622 499.105 259.847 500.247 257.364C504.505 258.436 508.401 260.623 511.535 263.7C514.668 266.778 516.925 270.634 518.074 274.872Z" fill="#FF7235"/>
<path d="M479.866 238.138C478.769 236.31 477.249 234.773 475.433 233.657C473.616 232.541 471.558 231.878 469.432 231.726C467.306 231.573 465.174 231.935 463.217 232.78C461.26 233.625 459.535 234.929 458.189 236.582C456.842 238.234 455.913 240.187 455.481 242.274C455.048 244.361 455.124 246.522 455.703 248.574C456.282 250.625 457.346 252.507 458.806 254.061C460.266 255.614 462.078 256.793 464.09 257.498C464.766 253.162 466.584 249.084 469.356 245.682C472.128 242.279 475.756 239.676 479.866 238.138Z" fill="#FF7235"/>
<path d="M473.793 246.372C471.379 240.856 467.04 236.408 461.586 233.857" stroke="#F5EBDD" stroke-width="4" stroke-miterlimit="10" stroke-linecap="round"/>
<path d="M471.791 248.368C467.594 244.014 461.942 241.356 455.911 240.901" stroke="#F5EBDD" stroke-width="4" stroke-miterlimit="10" stroke-linecap="round"/>
<path d="M464.09 257.498C466.669 258.406 469.465 258.495 472.097 257.753C474.728 257.012 477.067 255.476 478.793 253.356C480.519 251.235 481.548 248.634 481.74 245.907C481.932 243.179 481.278 240.459 479.866 238.118C475.753 239.658 472.124 242.264 469.352 245.67C466.579 249.076 464.763 253.159 464.09 257.498Z" fill="#FF7235"/>
<path d="M517.546 232.244C517.594 230.115 517.129 228.005 516.19 226.094C515.251 224.182 513.866 222.524 512.152 221.26C510.438 219.996 508.445 219.163 506.341 218.831C504.237 218.5 502.085 218.679 500.065 219.354C498.045 220.029 496.217 221.18 494.735 222.71C493.253 224.24 492.162 226.104 491.552 228.144C490.942 230.185 490.832 232.342 491.231 234.434C491.63 236.526 492.527 238.491 493.845 240.164C496.737 236.859 500.456 234.383 504.622 232.991C508.787 231.599 513.248 231.341 517.546 232.244Z" fill="#FF7235"/>
<path d="M508.018 235.948C508.929 229.995 507.645 223.913 504.404 218.838" stroke="#F5EBDD" stroke-width="4" stroke-miterlimit="10" stroke-linecap="round"/>
<path d="M505.26 236.56C504.049 230.633 500.7 225.358 495.851 221.74" stroke="#F5EBDD" stroke-width="4" stroke-miterlimit="10" stroke-linecap="round"/>
<path d="M493.855 240.164C495.548 242.308 497.861 243.877 500.479 244.657C503.097 245.438 505.892 245.392 508.482 244.526C511.073 243.659 513.334 242.015 514.956 239.817C516.578 237.62 517.482 234.975 517.546 232.244C513.25 231.343 508.791 231.602 504.627 232.994C500.464 234.386 496.746 236.861 493.855 240.164Z" fill="#FF7235"/>
<path d="M480.364 238.636C476.254 240.174 472.626 242.777 469.854 246.179C467.082 249.582 465.264 253.66 464.588 257.996" stroke="#F5EBDD" stroke-width="4" stroke-miterlimit="10" stroke-linecap="round"/>
<path d="M517.78 232.244C513.51 231.228 509.046 231.366 504.846 232.645C500.647 233.924 496.864 236.298 493.885 239.522" stroke="#F5EBDD" stroke-width="4" stroke-miterlimit="10" stroke-linecap="round"/>
<path d="M519.393 273.852C518.049 269.671 515.617 265.923 512.346 262.993C509.075 260.063 505.082 258.057 500.78 257.18" stroke="#F5EBDD" stroke-width="4" stroke-miterlimit="10" stroke-linecap="round"/>
</g>
<defs>
<filter id="filter0_d_9_319" x="0" y="0" width="545.434" height="442.383" filterUnits="userSpaceOnUse" color-interpolation-filters="sRGB">
<feFlood flood-opacity="0" result="BackgroundImageFix"/>
<feColorMatrix in="SourceAlpha" type="matrix" values="0 0 0 0 0 0 0 0 0 0 0 0 0 0 0 0 0 0 127 0" result="hardAlpha"/>
<feOffset dy="4"/>
<feGaussianBlur stdDeviation="2"/>
<feComposite in2="hardAlpha" operator="out"/>
<feColorMatrix type="matrix" values="0 0 0 0 0 0 0 0 0 0 0 0 0 0 0 0 0 0 0.25 0"/>
<feBlend mode="normal" in2="BackgroundImageFix" result="effect1_dropShadow_9_319"/>
<feBlend mode="normal" in="SourceGraphic" in2="effect1_dropShadow_9_319" result="shape"/>
</filter>
</defs>
</svg>
